<svg viewBox="0 0 286 722" xmlns="http://www.w3.org/2000/svg">
<path d="M284.019 290.871C284.038 271.764 280.187 252.852 272.701 235.284C265.215 217.716 254.249 201.858 240.469 188.672C260.176 175.278 277.708 157.773 282.431 138.222C293.045 94.2624 278.443 82.471 258.912 58.78C241.076 41.1568 232.58 31.0766 234.354 20.78C236.02 13.8271 250.435 0 250.435 0C250.435 0 230.698 7.69048 223.339 20.7407C212.167 39.8882 238.401 65.074 247.525 87.28C256.256 110.578 242.223 129.125 207.15 142.687C178.848 150.938 166.216 149.502 156.926 150.053C152.339 149.61 147.704 149.364 143 149.364C138.296 149.364 133.661 149.61 129.075 150.053C119.784 149.502 107.153 150.938 78.8508 142.687C43.7773 129.125 29.744 110.578 38.4756 87.28C47.5992 65.074 73.8333 39.8882 62.6615 20.7407C55.3019 7.69048 35.5651 0 35.5651 0C35.5651 0 49.9806 13.8271 51.6466 20.78C53.4203 31.0766 44.9729 41.1568 27.0687 58.78C7.55734 82.471 -7.04434 94.2624 3.56883 138.222C8.28252 157.773 25.8241 175.278 45.5217 188.672C27.023 206.423 13.6896 228.894 6.95179 253.673C0.214016 278.452 0.32625 304.604 7.27645 329.324C14.2266 354.044 27.7525 376.398 46.4028 393.989C65.0531 411.579 88.124 423.742 113.14 429.172H113.023L121.078 506.647C121.154 507.36 121.071 508.08 120.835 508.757C120.599 509.433 120.217 510.049 119.715 510.559C119.213 511.069 118.605 511.461 117.934 511.706C117.263 511.951 116.546 512.044 115.835 511.977L33.419 504.306C32.7498 504.243 32.0748 504.321 31.4375 504.536C30.8001 504.75 30.2144 505.095 29.718 505.55C29.2215 506.005 28.8253 506.558 28.5547 507.176C28.2841 507.793 28.1451 508.461 28.1467 509.135V558.592C28.1466 559.266 28.2866 559.933 28.5577 560.55C28.8288 561.166 29.225 561.719 29.7212 562.174C30.2173 562.628 30.8024 562.974 31.4391 563.189C32.0758 563.403 32.7501 563.482 33.419 563.421L116.09 555.721C116.782 555.656 117.481 555.742 118.137 555.973C118.794 556.203 119.392 556.574 119.893 557.059C120.394 557.543 120.784 558.13 121.038 558.78C121.291 559.43 121.402 560.128 121.362 560.825L112.307 716.866C112.27 717.526 112.367 718.185 112.592 718.806C112.817 719.426 113.166 719.994 113.618 720.474C114.069 720.954 114.613 721.338 115.217 721.6C115.82 721.862 116.471 721.998 117.129 722H168.744C169.402 721.998 170.053 721.862 170.656 721.6C171.26 721.338 171.804 720.954 172.255 720.474C172.706 719.994 173.055 719.426 173.281 718.806C173.506 718.185 173.603 717.526 173.566 716.866L164.54 560.844C164.499 560.148 164.608 559.451 164.861 558.801C165.113 558.151 165.503 557.563 166.002 557.078C166.502 556.594 167.101 556.223 167.757 555.992C168.412 555.761 169.11 555.675 169.803 555.74L252.601 563.45C253.27 563.512 253.944 563.433 254.581 563.218C255.217 563.003 255.803 562.658 256.299 562.203C256.795 561.749 257.191 561.196 257.462 560.579C257.733 559.962 257.873 559.296 257.873 558.622V509.135C257.875 508.461 257.736 507.793 257.465 507.176C257.195 506.558 256.798 506.005 256.302 505.55C255.805 505.095 255.22 504.75 254.582 504.536C253.945 504.321 253.27 504.243 252.601 504.306L175.839 511.456C174.432 511.589 173.012 511.407 171.684 510.922C170.355 510.438 169.15 509.663 168.156 508.655C167.162 507.646 166.404 506.428 165.936 505.089C165.469 503.751 165.303 502.324 165.451 500.914L172.919 429.123C204.379 422.263 232.555 404.809 252.765 379.659C272.975 354.51 284.004 323.179 284.019 290.871V290.871ZM141.638 377.807C90.2675 377.089 48.344 334.998 47.6482 283.446C47.385 264.406 52.788 245.72 63.1661 229.778C73.5442 213.836 88.4255 201.364 105.906 193.957C123.387 186.55 142.672 184.545 161.295 188.198C179.918 191.851 197.031 200.996 210.446 214.464C223.86 227.931 232.966 245.109 236.599 263.799C240.231 282.489 238.225 301.841 230.837 319.381C223.448 336.92 211.014 351.849 195.124 362.257C179.234 372.665 160.611 378.079 141.638 377.807V377.807Z"/>
</svg>
